<svg xmlns="http://www.w3.org/2000/svg" width="512" height="512" viewBox="0 0 512 512">
  <defs>
    <style>
      .cls-1 {
        fill: #1e90ff;
      }

      .cls-2 {
        fill: #fff;
        fill-rule: evenodd;
      }
    </style>
  </defs>
  <circle class="cls-1" cx="256" cy="256" r="256"/>
  <path id="ak" class="cls-2" d="M155.35,344a46.725,46.725,0,0,0,13.2-7.05Q174.7,332.3,181.6,326.3h3.9l-2.1-12.6a63.412,63.412,0,0,1-15.75,11.1,34.775,34.775,0,0,1-14.85,3.6q-9,0-14.1-6.15T133.6,305q0-11.4,6.45-18.45a46.642,46.642,0,0,1,17.1-11.4,181.629,181.629,0,0,1,23.55-7.65v51l1.8,4.5q1.5,11.4,5.4,17.25t16.2,5.85q13.2,0,20.7-5.55t15-16.35l-5.1-5.4a42.3,42.3,0,0,1-6.75,5.55,13.719,13.719,0,0,1-7.65,2.25q-4.8,0-6.9-2.7t-2.1-12V244.7q0-24-11.7-35.1t-37.5-11.1q-16.5,0-28.65,4.65t-18.75,12.3q-6.6,7.65-6.6,16.05t4.65,12.3a14.975,14.975,0,0,0,9.75,3.9q6.9,0,11.1-3.75t4.2-11.55q0-13.5,3.45-18.45T156.4,209q12.6,0,18.45,7.5t5.85,26.7V257q-8.1,2.4-18.3,5.1t-20.85,6.45A96.7,96.7,0,0,0,121.9,278a47.863,47.863,0,0,0-14.55,14.1q-5.554,8.4-5.55,20.7,0,15.6,9.75,24.6t26.85,9A52.925,52.925,0,0,0,155.35,344ZM322.9,334.4q-13.8,0-18-3.6t-4.2-15.3V272.3h2.1l44.7,51a11.982,11.982,0,0,1,2.4,3.45,8.948,8.948,0,0,1,.9,3.75,3.1,3.1,0,0,1-2.25,3q-2.25.9-8.85,0.9V344h70.2v-9.6a45.576,45.576,0,0,1-9.75-.9,20.812,20.812,0,0,1-8.25-4.2,98.038,98.038,0,0,1-10.8-10.5l-55.2-61.2,13.8-11.4q12.6-10.8,20.85-17.4a156.563,156.563,0,0,1,14.25-10.35,39.7,39.7,0,0,1,11.55-5.1A51.351,51.351,0,0,1,398.5,212v-9.9h-69V212q9,0,12,1.35a4.529,4.529,0,0,1,3,4.35,8.951,8.951,0,0,1-2.1,5.85q-2.1,2.553-3,3.45l-36.6,37.5h-2.1V132.2H289l-41.4,10.2v9.3q7.2-.6,10.2-0.6,6.9,0,9.6,2.7t2.7,11.4V314.3q0,12.3-3.75,16.2t-17.55,3.9V344h74.1v-9.6Z"/>
</svg>
